####
#
#	OBJ File Generated by LightWave3D
#	LightWave3D OBJ Export v2.3
#
####
o LevelOne.obj
mtllib LevelOne.mtl
g default
v -0.5 0 0.5
v 1.5 0 0.5
v 1.5 0 -1
v 2.5 0 -2
v 0.5 0 -1
v -0.5 0 -2
v -0.5 0 -3
v 0.5 0 -4
v 1.5 0 -4
v 2.5 0 -3
v 4 0 -3
v 4 0 -2
v 0.5 0 -5
v 1.5 0 -5
v -1.5 0 -3
v -1.5 0 -2
v 4 0 -0
v 7.5 0 -0
v 4 0 -5
v 7.5 0 -5
v -0.5 0 -0.5
v 0.5 0 -0.5
v -0.5 0 0.5
v 1.5 0 0.5
v 1.5 0 -1
v 2.5 0 -2
v 4 0 -2
v 4 0 -0
v 7.5 0 -0
v 7.5 0 -5
v 4 0 -5
v 4 0 -3
v 2.5 0 -3
v 1.5 0 -4
v 1.5 0 -5
v 0.5 0 -5
v 0.5 0 -4
v -0.5 0 -3
v -1.5 0 -3
v -1.5 0 -2
v -0.5 0 -2
v 0.5 0 -1
v 0.5 0 -0.5
v -0.5 0 -0.5
v -0.5 1.5 0.5
v 1.5 1.5 0.5
v 1.5 1.5 -1
v 2.5 1.5 -2
v 4 1.5 -2
v 4 1.5 -0
v 7.5 1.5 -0
v 7.5 1.5 -5
v 4 1.5 -5
v 4 1.5 -3
v 2.5 1.5 -3
v 1.5 1.5 -4
v 1.5 1.5 -5
v 0.5 1.5 -5
v 0.5 1.5 -4
v -0.5 1.5 -3
v -1.5 1.5 -3
v -1.5 1.5 -2
v -0.5 1.5 -2
v 0.5 1.5 -1
v 0.5 1.5 -0.5
v -0.5 1.5 -0.5
v 1 0 -2.25
v 0.75 0 -2.5
v 1 0 -2.75
v 1.25 0 -2.5
v 1 1.5 -2.25
v 0.75 1.5 -2.5
v 1 1.5 -2.75
v 1.25 1.5 -2.5
v 5 0 -0.95
v 5 0 -4
v 6.5 0 -4
v 6.5 0 -3
v 5.5 0 -3
v 5.5 0 -2
v 6.5 0 -2
v 6.5 0 -0.95
v 5 1.5 -0.95
v 5 1.5 -4
v 6.5 1.5 -4
v 6.5 1.5 -3
v 5.5 1.5 -3
v 5.5 1.5 -2
v 6.5 1.5 -2
v 6.5 1.5 -0.95
v -1.5 -0.0037293 0.5
v -1.5 -0.0037293 -5
v 7.5 0 -5
v 7.5 0 -5
v 7.5 -0.0037293 0.5
v -1.5 1.49627 0.5
v -1.5 1.49627 -5
v 7.5 1.5 -5
v 7.5 1.5 -5
v 7.5 1.49627 0.5
vn 0 0 -1
vn 0 0 -1
vn 0 0 -1
vn 0 0 -1
vn -1 0 -0
vn -1 0 -0
vn -1 0 -0
vn -1 0 -0
vn -0.707107 0 -0.707107
vn -0.707107 0 -0.707107
vn -0.707107 0 -0.707107
vn -0.707107 0 -0.707107
vn 0 0 -1
vn 0 0 -1
vn 0 0 -1
vn 0 0 -1
vn 1 0 -0
vn 1 0 -0
vn 1 0 -0
vn 1 0 -0
vn 0 0 -1
vn 0 0 -1
vn 0 0 -1
vn 0 0 -1
vn -1 0 -0
vn -1 0 -0
vn -1 0 -0
vn -1 0 -0
vn 0 0 1
vn 0 0 1
vn 0 0 1
vn 0 0 1
vn 1 0 -0
vn 1 0 -0
vn 1 0 -0
vn 1 0 -0
vn 0 0 1
vn 0 0 1
vn 0 0 1
vn 0 0 1
vn -0.707107 0 0.707107
vn -0.707107 0 0.707107
vn -0.707107 0 0.707107
vn -0.707107 0 0.707107
vn -1 0 -0
vn -1 0 -0
vn -1 0 -0
vn -1 0 -0
vn 0 0 1
vn 0 0 1
vn 0 0 1
vn 0 0 1
vn 1 0 -0
vn 1 0 -0
vn 1 0 -0
vn 1 0 -0
vn 0.707107 0 0.707107
vn 0.707107 0 0.707107
vn 0.707107 0 0.707107
vn 0.707107 0 0.707107
vn 0 0 1
vn 0 0 1
vn 0 0 1
vn 0 0 1
vn 1 0 -0
vn 1 0 -0
vn 1 0 -0
vn 1 0 -0
vn 0 -0 -1
vn 0 -0 -1
vn 0 -0 -1
vn 0 -0 -1
vn 0.707107 -0 -0.707107
vn 0.707107 -0 -0.707107
vn 0.707107 -0 -0.707107
vn 0.707107 -0 -0.707107
vn 1 0 -0
vn 1 0 -0
vn 1 0 -0
vn 1 0 -0
vn 0 0 1
vn 0 0 1
vn 0 0 1
vn 0 0 1
vn 1 0 -0
vn 1 0 -0
vn 1 0 -0
vn 1 0 -0
vn 0 0 -1
vn 0 0 -1
vn 0 0 -1
vn 0 0 -1
vn -0.707107 0 0.707107
vn -0.707107 0 0.707107
vn -0.707107 0 0.707107
vn -0.707107 0 0.707107
vn -0.707107 0 -0.707107
vn -0.707107 0 -0.707107
vn -0.707107 0 -0.707107
vn -0.707107 0 -0.707107
vn 0.707107 0 0.707107
vn 0.707107 0 0.707107
vn 0.707107 0 0.707107
vn 0.707107 0 0.707107
vn 0.707107 -0 -0.707107
vn 0.707107 -0 -0.707107
vn 0.707107 -0 -0.707107
vn 0.707107 -0 -0.707107
vn -1 0 -0
vn -1 0 -0
vn -1 0 -0
vn -1 0 -0
vn 0 0 -1
vn 0 0 -1
vn 0 0 -1
vn 0 0 -1
vn 1 0 -0
vn 1 0 -0
vn 1 0 -0
vn 1 0 -0
vn 0 0 1
vn 0 0 1
vn 0 0 1
vn 0 0 1
vn 0 0 -1
vn 0 0 -1
vn 0 0 -1
vn 0 0 -1
vn 1 0 -0
vn 1 0 -0
vn 1 0 -0
vn 1 0 -0
vn 1 0 -0
vn 1 0 -0
vn 1 0 -0
vn 1 0 -0
vn 0 0 1
vn 0 0 1
vn 0 0 1
vn 0 0 1
vn 0 1 -0
vn 0 1 -0
vn 0 1 -0
vn 0 1 -0
vn 0 1 -0
vn 0 -1 -0.000678062
vn 0 -1 -0.000678062
vn 0 -1 -0.000678062
vn 0 -1 -0.000678062
vn 0 -1 -0.000678062
g Default
usemtl Default
l 16 6
l 16 15
l 15 7
l 8 7
l 13 8
l 14 9
l 14 13
l 10 9
l 11 10
l 19 11
l 20 19
l 18 20
l 18 17
l 12 17
l 12 4
l 4 3
l 6 5
l 3 2
l 21 22
l 21 1
l 5 22
s off
f 45//1 46//2 24//3 23//4
f 46//5 47//6 25//7 24//8
f 47//9 48//10 26//11 25//12
f 48//13 49//14 27//15 26//16
f 27//17 49//18 50//19 28//20
f 50//21 51//22 29//23 28//24
f 51//25 52//26 30//27 29//28
f 30//29 52//30 53//31 31//32
f 31//33 53//34 54//35 32//36
f 32//37 54//38 55//39 33//40
f 55//41 56//42 34//43 33//44
f 56//45 57//46 35//47 34//48
f 35//49 57//50 58//51 36//52
f 36//53 58//54 59//55 37//56
f 37//57 59//58 60//59 38//60
f 60//61 61//62 39//63 38//64
f 39//65 61//66 62//67 40//68
f 40//69 62//70 63//71 41//72
f 41//73 63//74 64//75 42//76
f 42//77 64//78 65//79 43//80
f 43//81 65//82 66//83 44//84
f 44//85 66//86 45//87 23//88
f 45//89 46//90 24//91 23//92
f 71//93 72//94 68//95 67//96
f 72//97 73//98 69//99 68//100
f 70//101 74//102 71//103 67//104
f 69//105 73//106 74//107 70//108
f 83//109 84//110 76//111 75//112
f 84//113 85//114 77//115 76//116
f 77//117 85//118 86//119 78//120
f 78//121 86//122 87//123 79//124
f 88//125 89//126 81//127 80//128
f 79//129 87//130 88//131 80//132
f 81//133 89//134 90//135 82//136
f 82//137 90//138 83//139 75//140
f 93 98 99 94
f 95//141 94//142 93//143 92//144 91//145
f 96//146 97//147 98//148 99//149 100//150
