####
#
#	OBJ File Generated by LightWave3D
#	LightWave3D OBJ Export v2.3
#
####
o LevelFive.obj
mtllib LevelFive.mtl
g default
v 0 0 -0
v 1 0 -0
v 1 0 -2
v 3 0 -2
v 3 0 -3
v 0 0 -3
v 5 0 -5
v 6 0 -5
v 8 0 -3
v 8 0 -2
v 6 0 -0
v 5 0 -0
v 5 0 3
v 6 0 2
v 8 0 2
v 9 0 2
v 11 0 3
v 10 0 2
v 4.5 0 -2
v 5 0 -1.5
v 6 0 -1.5
v 6.5 0 -2
v 6.5 0 -3
v 4.5 0 -3
v 5 0 -3.5
v 6 0 -3.5
v 10 0 1
v 9 0 1
v 8 0 -0
v 10 0 -0
v 10 0 -2
v 10 0 -3
v 5 0 -8
v 6 0 -7
v 11 0 -8
v 10 0 -7
v 12 0 -5
v 13.5 0 -5.5
v 13.5 0 -4.5
v 11 0 -2
v 11 0 -0
v 11 0 1
v 14 0 1
v 13 0 -0
v 15.5 0 -2.5
v 15.5 0 -4.5
v 17 0 -4.5
v 16.5 0 -1.5
v 18.5 0 -1.5
v 18.5 0 1
v 19.5 0 -0
v 19.5 0 -1.5
v 23 0 -1.5
v 21.5 0 -3
v 20 0 -3
v 18.5 0 -3
v 17 0 -3
v 18.5 0 -4.5
v 23 0 -4.5
v 21.5 0 -4.5
v 20 0 -4.5
v 25 0 -4.5
v 23 0 -0
v 25 0 -2
v 24 0 1
v 26 0 -1
v 25 0 -6
v 26 0 -6
v 26 0 -5
v 29 0 -5
v 28 0 -6
v 25 0 -9
v 28 0 -9
v 26 0 -8
v 28 0 -8
v 29 0 -8
v 29 0 -9
v 28 0 -11
v 26.5 0 -12.5
v 27.5 0 -13.5
v 29 0 -12
v 29 0 -11
v 31 0 -11
v 31 0 -9
v 31 0 -8
v 32 0 -12
v 32 0 -5
v 15.5 0 -5.5
v 15.5 0 -6
v 26 0 -2.5
v 26.5 0 -2
v 31 0 -5
v 28 0 -2
v 35 0 -2
v 35 0 -1
v 32 0 2
v 31 0 2
v 28 0 -1
v 31.5 0 -3.5
v 33.5 0 -1.5
v 31.5 0 0.5
v 29.5 0 -1.5
v 26 0 -12.5
v 27.5 0 -14
v 27 0 -14
v 26 0 -13
v 25 0 -13.5
v 26.5 0 -15
v 25 0 -14
v 24.5 0 -14
v 26 0 -15
v 26 0 -15.5
v 25 0 -15
v -1.90735e-07 1 1.05033e-07
v 1 1 1.05033e-07
v 1 1 -2
v 3 1 -2
v 3 1 -3
v -1.90735e-07 1 -3
v 5 1 -5
v 6 1 -5
v 8 1 -3
v 8 1 -2
v 6 1 1.05033e-07
v 5 1 1.05033e-07
v 5 1 3
v 6 1 2
v 8 1 2
v 9 1 2
v 11 1 3
v 10 1 2
v 4.5 1 -2
v 5 1 -1.5
v 6 1 -1.5
v 6.5 1 -2
v 6.5 1 -3
v 4.5 1 -3
v 5 1 -3.5
v 6 1 -3.5
v 10 1 1
v 9 1 1
v 8 1 1.05033e-07
v 10 1 1.05033e-07
v 10 1 -2
v 10 1 -3
v 5 1 -8
v 6 1 -7
v 11 1 -8
v 10 1 -7
v 12 1 -5
v 13.5 1 -5.5
v 13.5 1 -4.5
v 11 1 -2
v 11 1 1.05033e-07
v 11 1 1
v 14 1 1
v 13 1 1.05033e-07
v 15.5 1 -2.5
v 15.5 1 -4.5
v 17 1 -4.5
v 16.5 1 -1.5
v 18.5 1 -1.5
v 18.5 1 1
v 19.5 1 1.05033e-07
v 19.5 1 -1.5
v 23 1 -1.5
v 21.5 1 -3
v 20 1 -3
v 18.5 1 -3
v 17 1 -3
v 18.5 1 -4.5
v 23 1 -4.5
v 21.5 1 -4.5
v 20 1 -4.5
v 25 1 -4.5
v 23 1 1.05033e-07
v 25 1 -2
v 24 1 1
v 26 1 -1
v 25 1 -6
v 26 1 -6
v 26 1 -5
v 29 1 -5
v 28 1 -6
v 25 1 -9
v 28 1 -9
v 26 1 -8
v 28 1 -8
v 29 1 -8
v 29 1 -9
v 28 1 -11
v 26.5 1 -12.5
v 27.5 1 -13.5
v 29 1 -12
v 29 1 -11
v 31 1 -11
v 31 1 -9
v 31 1 -8
v 32 1 -12
v 32 1 -5
v 15.5 1 -5.5
v 15.5 1 -6
v 26 1 -2.5
v 26.5 1 -2
v 31 1 -5
v 28 1 -2
v 35 1 -2
v 35 1 -1
v 32 1 2
v 31 1 2
v 28 1 -1
v 31.5 1 -3.5
v 33.5 1 -1.5
v 31.5 1 0.5
v 29.5 1 -1.5
v 26 1 -12.5
v 27.5 1 -14
v 27 1 -14
v 26 1 -13
v 25 1 -13.5
v 26.5 1 -15
v 25 1 -14
v 24.5 1 -14
v 26 1 -15
v 26 1 -15.5
v 25 1 -15
v -2 3.93974e-05 4
v -2 3.93974e-05 -16
v 36 3.93974e-05 -16
v 36 3.93974e-05 4
v -2 1.00004 4
v -2 1.00004 -16
v 36 1.00004 -16
v 36 1.00004 4
vn 0.447214 0 0.894427
vn 0.447214 0 0.894427
vn 0.447214 0 0.894427
vn 0.447214 0 0.894427
vn 1 1.90735e-07 0
vn 1 1.90735e-07 0
vn 1 1.90735e-07 0
vn 1 1.90735e-07 0
vn 0 0 1
vn 0 0 1
vn 0 0 1
vn 0 0 1
vn 0.707107 1.68587e-07 0.707107
vn 0.707107 1.68587e-07 0.707107
vn 0.707107 1.68587e-07 0.707107
vn 0.707107 1.68587e-07 0.707107
vn -0 1.05033e-07 -1
vn -0 1.05033e-07 -1
vn -0 1.05033e-07 -1
vn -0 1.05033e-07 -1
vn -1 -1.78814e-07 -0
vn -1 -1.78814e-07 -0
vn -1 -1.78814e-07 -0
vn -1 -1.78814e-07 -0
vn -0 1.19209e-07 -1
vn -0 1.19209e-07 -1
vn -0 1.19209e-07 -1
vn -0 1.19209e-07 -1
vn 0.707107 2.52881e-07 -0.707107
vn 0.707107 2.52881e-07 -0.707107
vn 0.707107 2.52881e-07 -0.707107
vn 0.707107 2.52881e-07 -0.707107
vn -0.707107 0 0.707107
vn -0.707107 0 0.707107
vn -0.707107 0 0.707107
vn -0.707107 0 0.707107
vn -0.707107 8.42937e-08 -0.707107
vn -0.707107 8.42937e-08 -0.707107
vn -0.707107 8.42937e-08 -0.707107
vn -0.707107 8.42937e-08 -0.707107
vn 1 0 -0
vn 1 0 -0
vn 1 0 -0
vn 1 0 -0
vn 1 0 -0
vn 1 0 -0
vn 1 0 -0
vn 1 0 -0
vn 0 0 1
vn 0 0 1
vn 0 0 1
vn 0 0 1
vn 0 0 -1
vn 0 0 -1
vn 0 0 -1
vn 0 0 -1
vn -0.707107 -8.42937e-08 0.707107
vn -0.707107 -8.42937e-08 0.707107
vn -0.707107 -8.42937e-08 0.707107
vn -0.707107 -8.42937e-08 0.707107
vn -1 0 -0
vn -1 0 -0
vn -1 0 -0
vn -1 0 -0
vn -0.707107 0 -0.707107
vn -0.707107 0 -0.707107
vn -0.707107 0 -0.707107
vn -0.707107 0 -0.707107
vn 0 0 -1
vn 0 0 -1
vn 0 0 -1
vn 0 0 -1
vn 0.707107 -0 -0.707107
vn 0.707107 -0 -0.707107
vn 0.707107 -0 -0.707107
vn 0.707107 -0 -0.707107
vn 1 -0 -0
vn 1 -0 -0
vn 1 -0 -0
vn 1 -0 -0
vn 0.707107 -8.42937e-08 0.707107
vn 0.707107 -8.42937e-08 0.707107
vn 0.707107 -8.42937e-08 0.707107
vn 0.707107 -8.42937e-08 0.707107
vn -0 -1.19209e-07 1
vn -0 -1.19209e-07 1
vn -0 -1.19209e-07 1
vn -0 -1.19209e-07 1
vn 0 0 1
vn 0 0 1
vn 0 0 1
vn 0 0 1
vn -1 0 -0
vn -1 0 -0
vn -1 0 -0
vn -1 0 -0
vn -0 1.19209e-07 -1
vn -0 1.19209e-07 -1
vn -0 1.19209e-07 -1
vn -0 1.19209e-07 -1
vn 1 0 -0
vn 1 0 -0
vn 1 0 -0
vn 1 0 -0
vn 1 0 -0
vn 1 0 -0
vn 1 0 -0
vn 1 0 -0
vn -1 0 -0
vn -1 0 -0
vn -1 0 -0
vn -1 0 -0
vn 0 -1.05033e-07 1
vn 0 -1.05033e-07 1
vn 0 -1.05033e-07 1
vn 0 -1.05033e-07 1
vn 1 -0 -0
vn 1 -0 -0
vn 1 -0 -0
vn 1 -0 -0
vn -0 -1.19209e-07 1
vn -0 -1.19209e-07 1
vn -0 -1.19209e-07 1
vn -0 -1.19209e-07 1
vn 0 0 1
vn 0 0 1
vn 0 0 1
vn 0 0 1
vn 1 0 -0
vn 1 0 -0
vn 1 0 -0
vn 1 0 -0
vn -0.707107 8.42937e-08 -0.707107
vn -0.707107 8.42937e-08 -0.707107
vn -0.707107 8.42937e-08 -0.707107
vn -0.707107 8.42937e-08 -0.707107
vn 0.707107 0 0.707107
vn 0.707107 0 0.707107
vn 0.707107 0 0.707107
vn 0.707107 0 0.707107
vn 0.707107 -0 -0.707107
vn 0.707107 -0 -0.707107
vn 0.707107 -0 -0.707107
vn 0.707107 -0 -0.707107
vn -1 0 -0
vn -1 0 -0
vn -1 0 -0
vn -1 0 -0
vn 1 0 -0
vn 1 0 -0
vn 1 0 -0
vn 1 0 -0
vn 0 0 1
vn 0 0 1
vn 0 0 1
vn 0 0 1
vn 0 -0 -1
vn 0 -0 -1
vn 0 -0 -1
vn 0 -0 -1
vn -0.707107 0 0.707107
vn -0.707107 0 0.707107
vn -0.707107 0 0.707107
vn -0.707107 0 0.707107
vn 0 0 -1
vn 0 0 -1
vn 0 0 -1
vn 0 0 -1
vn 1 -0 -0
vn 1 -0 -0
vn 1 -0 -0
vn 1 -0 -0
vn 0.707107 0 0.707107
vn 0.707107 0 0.707107
vn 0.707107 0 0.707107
vn 0.707107 0 0.707107
vn -0 -1.05033e-07 1
vn -0 -1.05033e-07 1
vn -0 -1.05033e-07 1
vn -0 -1.05033e-07 1
vn -0 1.19209e-07 -1
vn -0 1.19209e-07 -1
vn -0 1.19209e-07 -1
vn -0 1.19209e-07 -1
vn -0.707107 8.42937e-08 -0.707107
vn -0.707107 8.42937e-08 -0.707107
vn -0.707107 8.42937e-08 -0.707107
vn -0.707107 8.42937e-08 -0.707107
vn -0 1.19209e-07 -1
vn -0 1.19209e-07 -1
vn -0 1.19209e-07 -1
vn -0 1.19209e-07 -1
vn 1 0 -0
vn 1 0 -0
vn 1 0 -0
vn 1 0 -0
vn -1 0 -0
vn -1 0 -0
vn -1 0 -0
vn -1 0 -0
vn -1 0 -0
vn -1 0 -0
vn -1 0 -0
vn -1 0 -0
vn 0 1.19209e-07 -1
vn 0 1.19209e-07 -1
vn 0 1.19209e-07 -1
vn 0 1.19209e-07 -1
vn 0 0 1
vn 0 0 1
vn 0 0 1
vn 0 0 1
vn -1 0 -0
vn -1 0 -0
vn -1 0 -0
vn -1 0 -0
vn 0 0 -1
vn 0 0 -1
vn 0 0 -1
vn 0 0 -1
vn 1 -0 -0
vn 1 -0 -0
vn 1 -0 -0
vn 1 -0 -0
vn -1 0 -0
vn -1 0 -0
vn -1 0 -0
vn -1 0 -0
vn 0 0 -1
vn 0 0 -1
vn 0 0 -1
vn 0 0 -1
vn 1 -0 -0
vn 1 -0 -0
vn 1 -0 -0
vn 1 -0 -0
vn 0 0 1
vn 0 0 1
vn 0 0 1
vn 0 0 1
vn 0 -1.05033e-07 1
vn 0 -1.05033e-07 1
vn 0 -1.05033e-07 1
vn 0 -1.05033e-07 1
vn 0.707107 -7.42692e-08 0.707107
vn 0.707107 -7.42692e-08 0.707107
vn 0.707107 -7.42692e-08 0.707107
vn 0.707107 -7.42692e-08 0.707107
vn -0.707107 8.42937e-08 -0.707107
vn -0.707107 8.42937e-08 -0.707107
vn -0.707107 8.42937e-08 -0.707107
vn -0.707107 8.42937e-08 -0.707107
vn -0 1.19209e-07 -1
vn -0 1.19209e-07 -1
vn -0 1.19209e-07 -1
vn -0 1.19209e-07 -1
vn 0 0 -1
vn 0 0 -1
vn 0 0 -1
vn 0 0 -1
vn 1 -0 -0
vn 1 -0 -0
vn 1 -0 -0
vn 1 -0 -0
vn 0 0 1
vn 0 0 1
vn 0 0 1
vn 0 0 1
vn 1 0 -0
vn 1 0 -0
vn 1 0 -0
vn 1 0 -0
vn 0 0 1
vn 0 0 1
vn 0 0 1
vn 0 0 1
vn 1 0 -0
vn 1 0 -0
vn 1 0 -0
vn 1 0 -0
vn 0 0 1
vn 0 0 1
vn 0 0 1
vn 0 0 1
vn 1 0 -0
vn 1 0 -0
vn 1 0 -0
vn 1 0 -0
vn 0.707107 -0 -0.707107
vn 0.707107 -0 -0.707107
vn 0.707107 -0 -0.707107
vn 0.707107 -0 -0.707107
vn -0.707107 0 0.707107
vn -0.707107 0 0.707107
vn -0.707107 0 0.707107
vn -0.707107 0 0.707107
vn -1 0 -0
vn -1 0 -0
vn -1 0 -0
vn -1 0 -0
vn 0 0 1
vn 0 0 1
vn 0 0 1
vn 0 0 1
vn 1 0 -0
vn 1 0 -0
vn 1 0 -0
vn 1 0 -0
vn 0 -0 -1
vn 0 -0 -1
vn 0 -0 -1
vn 0 -0 -1
vn 0 0 1
vn 0 0 1
vn 0 0 1
vn 0 0 1
vn -1 0 -0
vn -1 0 -0
vn -1 0 -0
vn -1 0 -0
vn 0 -0 -1
vn 0 -0 -1
vn 0 -0 -1
vn 0 -0 -1
vn -1 0 -0
vn -1 0 -0
vn -1 0 -0
vn -1 0 -0
vn 0 0 1
vn 0 0 1
vn 0 0 1
vn 0 0 1
vn 1 0 -0
vn 1 0 -0
vn 1 0 -0
vn 1 0 -0
vn 0 0 -1
vn 0 0 -1
vn 0 0 -1
vn 0 0 -1
vn -1 0 -0
vn -1 0 -0
vn -1 0 -0
vn -1 0 -0
vn 0 0 -1
vn 0 0 -1
vn 0 0 -1
vn 0 0 -1
vn -1 0 -0
vn -1 0 -0
vn -1 0 -0
vn -1 0 -0
vn -0.707107 0 0.707107
vn -0.707107 0 0.707107
vn -0.707107 0 0.707107
vn -0.707107 0 0.707107
vn 1 0 -0
vn 1 0 -0
vn 1 0 -0
vn 1 0 -0
vn 0 -1.19209e-07 1
vn 0 -1.19209e-07 1
vn 0 -1.19209e-07 1
vn 0 -1.19209e-07 1
vn -0 1.19209e-07 -1
vn -0 1.19209e-07 -1
vn -0 1.19209e-07 -1
vn -0 1.19209e-07 -1
vn 0.707107 8.42937e-08 -0.707107
vn 0.707107 8.42937e-08 -0.707107
vn 0.707107 8.42937e-08 -0.707107
vn 0.707107 8.42937e-08 -0.707107
vn 0 0 -1
vn 0 0 -1
vn 0 0 -1
vn 0 0 -1
vn -0.707107 0 -0.707107
vn -0.707107 0 -0.707107
vn -0.707107 0 -0.707107
vn -0.707107 0 -0.707107
vn -1 0 -0
vn -1 0 -0
vn -1 0 -0
vn -1 0 -0
vn -0.707107 -8.42937e-08 0.707107
vn -0.707107 -8.42937e-08 0.707107
vn -0.707107 -8.42937e-08 0.707107
vn -0.707107 -8.42937e-08 0.707107
vn 0.707107 0 0.707107
vn 0.707107 0 0.707107
vn 0.707107 0 0.707107
vn 0.707107 0 0.707107
vn 0.707107 -8.42937e-08 0.707107
vn 0.707107 -8.42937e-08 0.707107
vn 0.707107 -8.42937e-08 0.707107
vn 0.707107 -8.42937e-08 0.707107
vn -0.707107 -8.42937e-08 0.707107
vn -0.707107 -8.42937e-08 0.707107
vn -0.707107 -8.42937e-08 0.707107
vn -0.707107 -8.42937e-08 0.707107
vn -0.707107 8.42937e-08 -0.707107
vn -0.707107 8.42937e-08 -0.707107
vn -0.707107 8.42937e-08 -0.707107
vn -0.707107 8.42937e-08 -0.707107
vn 0.707107 -0 -0.707107
vn 0.707107 -0 -0.707107
vn 0.707107 -0 -0.707107
vn 0.707107 -0 -0.707107
vn 0 -0 -1
vn 0 -0 -1
vn 0 -0 -1
vn 0 -0 -1
vn -1 0 -0
vn -1 0 -0
vn -1 0 -0
vn -1 0 -0
vn 0 0 1
vn 0 0 1
vn 0 0 1
vn 0 0 1
vn 1 0 -0
vn 1 0 -0
vn 1 0 -0
vn 1 0 -0
vn 0.447214 -0 -0.894427
vn 0.447214 -0 -0.894427
vn 0.447214 -0 -0.894427
vn 0.447214 -0 -0.894427
vn -0.894427 0 0.447214
vn -0.894427 0 0.447214
vn -0.894427 0 0.447214
vn -0.894427 0 0.447214
vn 1 0 -0
vn 1 0 -0
vn 1 0 -0
vn 1 0 -0
vn 0 -0 -1
vn 0 -0 -1
vn 0 -0 -1
vn 0 -0 -1
vn 0 0 1
vn 0 0 1
vn 0 0 1
vn 0 0 1
vn -1 0 -0
vn -1 0 -0
vn -1 0 -0
vn -1 0 -0
vn 0.894427 0 0.447214
vn 0.894427 0 0.447214
vn 0.894427 0 0.447214
vn 0.894427 0 0.447214
vn 0 1 -0
vn 0 1 -0
vn 0 1 -0
vn 0 1 -0
vn 0 -1 -0
vn 0 -1 -0
vn 0 -1 -0
vn 0 -1 -0
g Default
usemtl Default
p 84
p 99
p 99
p 100
p 101
p 102
p 102
s off
f 112//1 225//2 226//3 113//4
f 6//5 119//6 114//7 1//8
f 5//9 118//10 119//11 6//12
f 7//13 120//14 118//15 5//16
f 114//17 115//18 2//19 1//20
f 115//21 116//22 3//23 2//24
f 116//25 117//26 4//27 3//28
f 117//29 125//30 12//31 4//32
f 9//33 122//34 121//35 8//36
f 11//37 124//38 123//39 10//40
f 125//41 126//42 13//43 12//44
f 124//45 127//46 14//47 11//48
f 15//49 128//50 127//51 14//52
f 126//53 130//54 17//55 13//56
f 133//57 132//58 19//59 20//60
f 132//61 137//62 24//63 19//64
f 137//65 138//66 25//67 24//68
f 138//69 139//70 26//71 25//72
f 139//73 136//74 23//75 26//76
f 136//77 135//78 22//79 23//80
f 135//81 134//82 21//83 22//84
f 134//85 133//86 20//87 21//88
f 18//89 131//90 129//91 16//92
f 129//93 141//94 28//95 16//96
f 141//97 140//98 27//99 28//100
f 140//101 131//102 18//103 27//104
f 29//105 142//106 128//107 15//108
f 130//109 155//110 42//111 17//112
f 30//113 143//114 142//115 29//116
f 31//117 144//118 143//119 30//120
f 144//121 123//122 10//123 31//124
f 32//125 145//126 122//127 9//128
f 153//129 154//130 41//131 40//132
f 153//133 152//134 39//135 40//136
f 150//137 145//138 32//139 37//140
f 36//141 149//142 150//143 37//144
f 8//145 121//146 147//147 34//148
f 33//149 146//150 120//151 7//152
f 35//153 148//154 146//155 33//156
f 34//157 147//158 149//159 36//160
f 38//161 151//162 148//163 35//164
f 152//165 159//166 46//167 39//168
f 159//169 158//170 45//171 46//172
f 158//173 157//174 44//175 45//176
f 157//177 154//178 41//179 44//180
f 155//181 156//182 43//183 42//184
f 156//185 161//186 48//187 43//188
f 161//189 162//190 49//191 48//192
f 162//193 163//194 50//195 49//196
f 51//197 164//198 165//199 52//200
f 166//201 172//202 59//203 53//204
f 52//205 165//206 166//207 53//208
f 169//209 170//210 57//211 56//212
f 57//213 170//214 160//215 47//216
f 160//217 171//218 58//219 47//220
f 171//221 169//222 56//223 58//224
f 168//225 174//226 61//227 55//228
f 174//229 173//230 60//231 61//232
f 173//233 167//234 54//235 60//236
f 167//237 168//238 55//239 54//240
f 63//241 176//242 164//243 51//244
f 64//245 177//246 176//247 63//248
f 65//249 178//250 179//251 66//252
f 163//253 178//254 65//255 50//256
f 172//257 175//258 62//259 59//260
f 175//261 177//262 64//263 62//264
f 88//265 201//266 151//267 38//268
f 89//269 202//270 201//271 88//272
f 67//273 180//274 202//275 89//276
f 72//277 185//278 180//279 67//280
f 73//281 186//282 185//283 72//284
f 78//285 191//286 186//287 73//288
f 79//289 192//290 191//291 78//292
f 194//293 193//294 80//295 81//296
f 77//297 190//298 195//299 82//300
f 84//301 197//302 190//303 77//304
f 83//305 196//306 197//307 84//308
f 82//309 195//310 196//311 83//312
f 86//313 199//314 194//315 81//316
f 87//317 200//318 199//319 86//320
f 74//321 187//322 188//323 75//324
f 181//325 187//326 74//327 68//328
f 71//329 184//330 181//331 68//332
f 75//333 188//334 184//335 71//336
f 182//337 183//338 70//339 69//340
f 183//341 189//342 76//343 70//344
f 189//345 198//346 85//347 76//348
f 203//349 182//350 69//351 90//352
f 91//353 204//354 203//355 90//356
f 85//357 198//358 205//359 92//360
f 93//361 206//362 204//363 91//364
f 179//365 211//366 98//367 66//368
f 211//369 210//370 97//371 98//372
f 210//373 209//374 96//375 97//376
f 209//377 208//378 95//379 96//380
f 208//381 207//382 94//383 95//384
f 207//385 200//386 87//387 94//388
f 205//389 206//390 93//391 92//392
f 100//393 213//394 214//395 101//396
f 214//397 215//398 102//399 101//400
f 215//401 212//402 99//403 102//404
f 212//405 213//406 100//407 99//408
f 103//409 216//410 192//411 79//412
f 193//413 217//414 104//415 80//416
f 217//417 218//418 105//419 104//420
f 106//421 219//422 216//423 103//424
f 107//425 220//426 219//427 106//428
f 218//429 221//430 108//431 105//432
f 109//433 222//434 220//435 107//436
f 110//437 223//438 222//439 109//440
f 221//441 224//442 111//443 108//444
f 224//445 225//446 112//447 111//448
f 113//449 226//450 223//451 110//452
f 230//453 229//454 228//455 227//456
f 232//457 233//458 234//459 231//460
