####
#
#	OBJ File Generated by LightWave3D
#	LightWave3D OBJ Export v2.3
#
####
o LevelOne.obj
mtllib LevelOne.mtl
g default
v -3.5 -0.748135 2.75
v -1.5 -0.748135 2.75
v -1.5 -0.748135 1.25
v -0.5 -0.748135 0.25
v -2.5 -0.748135 1.25
v -3.5 -0.748135 0.25
v -3.5 -0.748135 -0.75
v -2.5 -0.748135 -1.75
v -1.5 -0.748135 -1.75
v -0.5 -0.748135 -0.75
v 1 -0.748135 -0.75
v 1 -0.748135 0.25
v -2.5 -0.748135 -2.75
v -1.5 -0.748135 -2.75
v -4.5 -0.748135 -0.75
v -4.5 -0.748135 0.25
v 1 -0.748135 2.25
v 4.5 -0.748135 2.25
v 1 -0.748135 -2.75
v 4.5 -0.748135 -2.75
v -3.5 -0.748135 1.75
v -2.5 -0.748135 1.75
v -1.5 -0.748135 1.25
v -0.5 -0.748135 0.25
v 1 -0.748135 0.25
v 1 -0.748135 2.25
v 4.5 -0.748135 2.25
v 4.5 -0.748135 -2.75
v 1 -0.748135 -2.75
v 1 -0.748135 -0.75
v -0.5 -0.748135 -0.75
v -1.5 -0.748135 -1.75
v -1.5 -0.748135 -2.75
v -2.5 -0.748135 -2.75
v -2.5 -0.748135 -1.75
v -3.5 -0.748135 -0.75
v -4.5 -0.748135 -0.75
v -4.5 -0.748135 0.25
v -3.5 -0.748135 0.25
v -2.5 -0.748135 1.25
v -2.5 -0.748135 1.75
v -3.5 -0.748135 1.75
v -3.5 0.751865 2.75
v -1.5 0.751865 2.75
v -1.5 0.751865 1.25
v -0.5 0.751865 0.25
v 1 0.751865 0.25
v 1 0.751865 2.25
v 4.5 0.751865 2.25
v 4.5 0.751865 -2.75
v 1 0.751865 -2.75
v 1 0.751865 -0.75
v -0.5 0.751865 -0.75
v -1.5 0.751865 -1.75
v -1.5 0.751865 -2.75
v -2.5 0.751865 -2.75
v -2.5 0.751865 -1.75
v -3.5 0.751865 -0.75
v -4.5 0.751865 -0.75
v -4.5 0.751865 0.25
v -3.5 0.751865 0.25
v -2.5 0.751865 1.25
v -2.5 0.751865 1.75
v -3.5 0.751865 1.75
v -2 -0.748135 -0
v -2.25 -0.748135 -0.25
v -2 -0.748135 -0.5
v -1.75 -0.748135 -0.25
v -2 0.751865 -0
v -2.25 0.751865 -0.25
v -2 0.751865 -0.5
v -1.75 0.751865 -0.25
v 2 -0.748135 1.3
v 2 -0.748135 -1.75
v 3.5 -0.748135 -1.75
v 3.5 -0.748135 -0.75
v 2.5 -0.748135 -0.75
v 2.5 -0.748135 0.25
v 3.5 -0.748135 0.25
v 3.5 -0.748135 1.3
v 2 0.751865 1.3
v 2 0.751865 -1.75
v 3.5 0.751865 -1.75
v 3.5 0.751865 -0.75
v 2.5 0.751865 -0.75
v 2.5 0.751865 0.25
v 3.5 0.751865 0.25
v 3.5 0.751865 1.3
v 4.5 -0.748135 -2.75
v 4.5 -0.748135 -2.75
v 4.5 0.751865 -2.75
v 4.5 0.751865 -2.75
v -3.5 -0.748135 2.75
v -1.5 -0.748135 2.75
v -4.75 -0.75 3
v 4.75 -0.75 3
v -4.75 -0.75 -3
v 4.75 -0.748135 -3
v 4.75 -0.748135 -3
v 4.75 -0.748135 -3
v 4.75 -0.748135 -3
v 4.75 -0.748135 -3
v 4.75 -0.748135 -3
v -4.75 0.75 3
v 4.75 0.75 3
v -4.75 0.75 -3
v 4.75 0.751865 -3
v 4.75 0.751865 -3
v 4.75 0.751865 -3
v 4.75 0.751865 -3
v 4.75 0.751865 -3
v 4.75 0.751865 -3
vn -1 0 -0
vn -1 0 -0
vn -1 0 -0
vn -1 0 -0
vn -0.707107 0 -0.707107
vn -0.707107 0 -0.707107
vn -0.707107 0 -0.707107
vn -0.707107 0 -0.707107
vn 0 0 -1
vn 0 0 -1
vn 0 0 -1
vn 0 0 -1
vn 1 0 -0
vn 1 0 -0
vn 1 0 -0
vn 1 0 -0
vn 0 0 -1
vn 0 0 -1
vn 0 0 -1
vn 0 0 -1
vn -1 0 -0
vn -1 0 -0
vn -1 0 -0
vn -1 0 -0
vn 0 0 1
vn 0 0 1
vn 0 0 1
vn 0 0 1
vn 1 0 -0
vn 1 0 -0
vn 1 0 -0
vn 1 0 -0
vn 0 0 1
vn 0 0 1
vn 0 0 1
vn 0 0 1
vn -0.707107 0 0.707107
vn -0.707107 0 0.707107
vn -0.707107 0 0.707107
vn -0.707107 0 0.707107
vn -1 0 -0
vn -1 0 -0
vn -1 0 -0
vn -1 0 -0
vn 0 0 1
vn 0 0 1
vn 0 0 1
vn 0 0 1
vn 1 0 -0
vn 1 0 -0
vn 1 0 -0
vn 1 0 -0
vn 0.707107 0 0.707107
vn 0.707107 0 0.707107
vn 0.707107 0 0.707107
vn 0.707107 0 0.707107
vn 0 0 1
vn 0 0 1
vn 0 0 1
vn 0 0 1
vn 1 0 -0
vn 1 0 -0
vn 1 0 -0
vn 1 0 -0
vn 0 -0 -1
vn 0 -0 -1
vn 0 -0 -1
vn 0 -0 -1
vn 0.707107 -0 -0.707107
vn 0.707107 -0 -0.707107
vn 0.707107 -0 -0.707107
vn 0.707107 -0 -0.707107
vn 1 0 -0
vn 1 0 -0
vn 1 0 -0
vn 1 0 -0
vn 0 0 1
vn 0 0 1
vn 0 0 1
vn 0 0 1
vn 1 0 -0
vn 1 0 -0
vn 1 0 -0
vn 1 0 -0
vn 0 0 -1
vn 0 0 -1
vn 0 0 -1
vn 0 0 -1
vn -0.707107 0 0.707107
vn -0.707107 0 0.707107
vn -0.707107 0 0.707107
vn -0.707107 0 0.707107
vn -0.707107 0 -0.707107
vn -0.707107 0 -0.707107
vn -0.707107 0 -0.707107
vn -0.707107 0 -0.707107
vn 0.707107 0 0.707107
vn 0.707107 0 0.707107
vn 0.707107 0 0.707107
vn 0.707107 0 0.707107
vn 0.707107 -0 -0.707107
vn 0.707107 -0 -0.707107
vn 0.707107 -0 -0.707107
vn 0.707107 -0 -0.707107
vn -1 0 -0
vn -1 0 -0
vn -1 0 -0
vn -1 0 -0
vn 0 0 -1
vn 0 0 -1
vn 0 0 -1
vn 0 0 -1
vn 1 0 -0
vn 1 0 -0
vn 1 0 -0
vn 1 0 -0
vn 0 0 1
vn 0 0 1
vn 0 0 1
vn 0 0 1
vn 0 0 -1
vn 0 0 -1
vn 0 0 -1
vn 0 0 -1
vn 1 0 -0
vn 1 0 -0
vn 1 0 -0
vn 1 0 -0
vn 1 0 -0
vn 1 0 -0
vn 1 0 -0
vn 1 0 -0
vn 0 0 1
vn 0 0 1
vn 0 0 1
vn 0 0 1
vn 0 0 -1
vn 0 0 -1
vn 0 0 -1
vn 0 0 -1
vn 0 1 -0
vn 0 1 -0
vn 0 1 -0
vn 0 1 -0
vn 0 1 -0
vn 0 1 -0
vn 0 1 -0
vn 0 1 -0
vn 0 1 -0
vn 0 -1 -0
vn 0 -1 -0
vn 0 -1 -0
vn 0 -1 -0
vn 0 -1 -0
vn 0 -1 -0
vn 0 -1 -0
vn 0 -1 -0
vn 0 -1 -0
g Default
usemtl Default
l 16 6
l 16 15
l 15 7
l 8 7
l 13 8
l 14 9
l 14 13
l 10 9
l 11 10
l 19 11
l 20 19
l 18 20
l 18 17
l 12 17
l 12 4
l 4 3
l 6 5
l 3 2
l 21 22
l 21 1
l 5 22
s off
f 44//1 45//2 23//3 94//4
f 45//5 46//6 24//7 23//8
f 46//9 47//10 25//11 24//12
f 25//13 47//14 48//15 26//16
f 48//17 49//18 27//19 26//20
f 49//21 50//22 28//23 27//24
f 28//25 50//26 51//27 29//28
f 29//29 51//30 52//31 30//32
f 30//33 52//34 53//35 31//36
f 53//37 54//38 32//39 31//40
f 54//41 55//42 33//43 32//44
f 33//45 55//46 56//47 34//48
f 34//49 56//50 57//51 35//52
f 35//53 57//54 58//55 36//56
f 58//57 59//58 37//59 36//60
f 37//61 59//62 60//63 38//64
f 38//65 60//66 61//67 39//68
f 39//69 61//70 62//71 40//72
f 40//73 62//74 63//75 41//76
f 41//77 63//78 64//79 42//80
f 42//81 64//82 43//83 93//84
f 43//85 44//86 94//87 93//88
f 69//89 70//90 66//91 65//92
f 70//93 71//94 67//95 66//96
f 68//97 72//98 69//99 65//100
f 67//101 71//102 72//103 68//104
f 81//105 82//106 74//107 73//108
f 82//109 83//110 75//111 74//112
f 75//113 83//114 84//115 76//116
f 76//117 84//118 85//119 77//120
f 86//121 87//122 79//123 78//124
f 77//125 85//126 86//127 78//128
f 79//129 87//130 88//131 80//132
f 80//133 88//134 81//135 73//136
f 89 91 92 90
f 43//137 44//138 94//139 93//140
f 96//141 103//142 102//143 101//144 100//145 99//146 98//147 97//148 95//149
f 106//150 107//151 108//152 109//153 110//154 111//155 112//156 105//157 104//158
