####
#
#	OBJ File Generated by LightWave3D
#	LightWave3D OBJ Export v2.3
#
####
o LevelThree.obj
mtllib LevelThree.mtl
g default
v 1 0 -9.5
v 2.5 0 -9.5
v 2.5 0 -8
v 1 0 -8
v 1 2 -9.5
v 2.5 2 -9.5
v 2.5 2 -8
v 1 2 -8
v -1 0 1
v -1 0 -2
v -4 0 -2
v -4 0 -3.5
v -1 0 -3.5
v -1 0 -12
v 6 0 -12
v 7 0 -11
v 7 0 -10.5
v 6 0 -9.5
v 4 0 -9.5
v 4 0 -6.5
v 1 0 -6.5
v 1 0 -3.5
v 4 0 -3.5
v 4 0 -2
v 1 0 -2
v 1 0 1
v -1 2 1
v -1 2 -2
v -4 2 -2
v -4 2 -3.5
v -1 2 -3.5
v -1 2 -12
v 6 2 -12
v 7 2 -11
v 7 2 -10.5
v 6 2 -9.5
v 4 2 -9.5
v 4 2 -6.5
v 1 2 -6.5
v 1 2 -3.5
v 4 2 -3.5
v 4 2 -2
v 1 2 -2
v 1 2 1
v -5 2 2
v -5 2 -13
v 8 2 -13
v 8 2 2
v -5 0 2
v -5 0 -13
v 8 0 -13
v 8 0 2
vn -1 0 -0
vn -1 0 -0
vn -1 0 -0
vn -1 0 -0
vn 0 0 -1
vn 0 0 -1
vn 0 0 -1
vn 0 0 -1
vn 1 0 -0
vn 1 0 -0
vn 1 0 -0
vn 1 0 -0
vn 0 0 1
vn 0 0 1
vn 0 0 1
vn 0 0 1
vn 0 0 -1
vn 0 0 -1
vn 0 0 -1
vn 0 0 -1
vn 1 0 -0
vn 1 0 -0
vn 1 0 -0
vn 1 0 -0
vn 0 -0 -1
vn 0 -0 -1
vn 0 -0 -1
vn 0 -0 -1
vn 1 0 -0
vn 1 0 -0
vn 1 0 -0
vn 1 0 -0
vn 0 0 1
vn 0 0 1
vn 0 0 1
vn 0 0 1
vn 1 0 -0
vn 1 0 -0
vn 1 0 -0
vn 1 0 -0
vn 0 0 1
vn 0 0 1
vn 0 0 1
vn 0 0 1
vn -0.707107 0 0.707107
vn -0.707107 0 0.707107
vn -0.707107 0 0.707107
vn -0.707107 0 0.707107
vn -1 0 -0
vn -1 0 -0
vn -1 0 -0
vn -1 0 -0
vn -0.707107 0 -0.707107
vn -0.707107 0 -0.707107
vn -0.707107 0 -0.707107
vn -0.707107 0 -0.707107
vn 0 0 -1
vn 0 0 -1
vn 0 0 -1
vn 0 0 -1
vn -1 0 -0
vn -1 0 -0
vn -1 0 -0
vn -1 0 -0
vn 0 0 -1
vn 0 0 -1
vn 0 0 -1
vn 0 0 -1
vn -1 0 -0
vn -1 0 -0
vn -1 0 -0
vn -1 0 -0
vn 0 0 1
vn 0 0 1
vn 0 0 1
vn 0 0 1
vn -1 0 -0
vn -1 0 -0
vn -1 0 -0
vn -1 0 -0
vn 0 0 -1
vn 0 0 -1
vn 0 0 -1
vn 0 0 -1
vn -1 0 -0
vn -1 0 -0
vn -1 0 -0
vn -1 0 -0
vn 0 -1 -0
vn 0 -1 -0
vn 0 -1 -0
vn 0 -1 -0
vn 0 1 -0
vn 0 1 -0
vn 0 1 -0
vn 0 1 -0
g Default
usemtl Default
s off
f 8//1 5//2 1//3 4//4
f 5//5 6//6 2//7 1//8
f 2//9 6//10 7//11 3//12
f 3//13 7//14 8//15 4//16
f 27//17 44//18 26//19 9//20
f 10//21 28//22 27//23 9//24
f 11//25 29//26 28//27 10//28
f 12//29 30//30 29//31 11//32
f 31//33 30//34 12//35 13//36
f 14//37 32//38 31//39 13//40
f 15//41 33//42 32//43 14//44
f 34//45 33//46 15//47 16//48
f 35//49 34//50 16//51 17//52
f 36//53 35//54 17//55 18//56
f 37//57 36//58 18//59 19//60
f 38//61 37//62 19//63 20//64
f 39//65 38//66 20//67 21//68
f 40//69 39//70 21//71 22//72
f 23//73 41//74 40//75 22//76
f 42//77 41//78 23//79 24//80
f 43//81 42//82 24//83 25//84
f 44//85 43//86 25//87 26//88
f 45//89 46//90 47//91 48//92
f 52//93 51//94 50//95 49//96
