####
#
#	OBJ File Generated by LightWave3D
#	LightWave3D OBJ Export v2.3
#
####
o warning.obj
mtllib warning.mtl
g default
v 4.15 -1.82 0.5
v 3.64 -2.69 0.5
v 0.5 -2.69 0.5
v 0.5 -2.1 0.5
v 0.5 -1.1 0.5
v 0.5 -0.6 0.5
v 0.5 -0.6 0.5
v 0.5 3.6 0.5
v 0.5 4.5 0.5
v -0.5 -0.6 0.5
v -0.5 -1.1 0.5
v -0.5 -2.1 0.5
v -0.5 -2.69 0.5
v -4.15 -1.82 0.5
v -0.5 4.5 0.5
v -0.5 3.6 0.5
v -3.65 -2.69 0.5
v 4.15 -1.82 -0.5
v 3.64 -2.69 -0.5
v 0.5 -2.69 -0.5
v 0.5 -2.1 -0.5
v 0.5 -1.1 -0.5
v 0.5 -0.6 -0.5
v 0.5 -0.6 -0.5
v 0.5 3.6 -0.5
v 0.5 4.5 -0.5
v -0.5 -0.6 -0.5
v -0.5 -1.1 -0.5
v -0.5 -2.1 -0.5
v -0.5 -2.69 -0.5
v -4.15 -1.82 -0.5
v -0.5 4.5 -0.5
v -0.5 3.6 -0.5
v -3.65 -2.69 -0.5
v -0.5 -0.6 -0.5
v -0.5 -0.590043 0.5
v -0.5 -0.578285 0.5
vn 0.865957 0.500118 0
vn 0.865957 0.500118 0
vn 0.865957 0.500118 0
vn 0.865957 0.500118 0
vn 0.862698 -0.505719 -0
vn 0.862698 -0.505719 -0
vn 0.862698 -0.505719 -0
vn 0.862698 -0.505719 -0
vn 0 -1 -0
vn 0 -1 -0
vn 0 -1 -0
vn 0 -1 -0
vn -1 0 -0
vn -1 0 -0
vn -1 0 -0
vn -1 0 -0
vn -1 0 -0
vn -1 0 -0
vn -1 0 -0
vn -1 0 -0
vn -1 0 -0
vn -1 0 -0
vn -1 0 -0
vn -1 0 -0
vn -1 0 -0
vn -1 0 -0
vn -1 0 -0
vn -1 0 -0
vn 0 1 0
vn 0 1 0
vn 0 1 0
vn 0 1 0
vn 1 0 -0
vn 1 0 -0
vn 1 0 -0
vn 1 0 -0
vn 0 -1 -0
vn 0 -1 -0
vn 0 -1 -0
vn 0 -1 -0
vn 0 1 0
vn 0 1 0
vn 0 1 0
vn 0 1 0
vn 0 -1 -0
vn 0 -1 -0
vn 0 -1 -0
vn 0 -1 -0
vn -0.867014 -0.498284 -0
vn -0.867014 -0.498284 -0
vn -0.867014 -0.498284 -0
vn -0.867014 -0.498284 -0
vn -0.865957 0.500118 -0
vn -0.865957 0.500118 -0
vn -0.865957 0.500118 -0
vn -0.865957 0.500118 -0
vn 1 0 -0
vn 1 0 -0
vn 1 0 -0
vn 1 0 -0
vn 1 0 -0
vn 1 0 -0
vn 0 -1 -0
vn 0 -1 -0
vn 0 -1 -0
vn 0 -1 -0
vn 0 -1 -0
vn 0 -1 -0
vn 0 -1 -0
vn 0 -1 -0
vn 0 1 0
vn 0 1 0
vn 0 1 0
vn 0 1 0
vn 0 0 1
vn 0 0 1
vn 0 0 1
vn 0 0 1
vn 0 0 1
vn 0 0 -1
vn 0 0 -1
vn 0 0 -1
vn 0 0 -1
vn 0 0 -1
vn 0 0 1
vn 0 0 1
vn 0 0 1
vn 0 0 1
vn 0 0 -1
vn 0 0 -1
vn 0 0 -1
vn 0 0 -1
vn 0 0 -1
vn 0 0 -1
vn 0 0 -1
vn 0 0 -1
vn 0 0 -1
vn 0 0 -1
vn 0 0 -1
vn 0 0 -1
vn 0 0 -1
vn 0 0 -1
vn 0 0 -1
vn 0 0 -1
vn -0 0 1
vn -0 0 1
vn -0 0 1
vn -0 0 1
vn -0 0 1
vn -0 0 1
vn -0 0 1
vn -0 0 1
vn -0 0 1
vn -0 0 1
vn -0 0 1
vn -0 0 1
vn -0 0 1
vn -0 0 1
vn -0 0 1
vn -0 0 1
g Default
usemtl Default
s off
f 18//1 26//2 9//3 1//4
f 19//5 18//6 1//7 2//8
f 20//9 19//10 2//11 3//12
f 5//13 22//14 21//15 4//16
f 6//17 23//18 22//19 5//20
f 24 23 6 7
f 8//21 25//22 23//23 6//24
f 10//25 27//26 28//27 11//28
f 23//29 27//30 10//31 6//32
f 22//33 24//34 7//35 5//36
f 28//37 22//38 5//39 11//40
f 21//41 29//42 12//43 4//44
f 30//45 20//46 3//47 13//48
f 14//49 31//50 34//51 17//52
f 15//53 32//54 31//55 14//56
f 29//57 33//58 16//59 37//60 36//61 12//62
f 17//63 34//64 30//65 13//66
f 33//67 25//68 8//69 16//70
f 26//71 32//72 15//73 9//74
f 11//75 5//76 7//77 6//78 10//79
f 27//80 23//81 24//82 22//83 28//84
f 13//85 3//86 4//87 12//88
f 19//89 20//90 30//91 34//92 31//93 32//94 33//95 29//96 21//97 22//98 23//99 25//100 33//101 32//102 26//103 18//104
f 9//105 15//106 14//107 17//108 13//109 12//110 36//111 37//112 16//113 8//114 6//115 5//116 4//117 3//118 2//119 1//120
